<svg xmlns="http://www.w3.org/2000/svg" width="16" height="16"><g fill="none" fill-rule="evenodd"><path stroke="#c1c0c0" stroke-linecap="round" stroke-linejoin="round" d="M14.46 11.37c-1.43 2.76-2.57 4.13-3.62 4.13-.48 0-.96-.15-1.42-.45a2.18 2.18 0 0 0-2.25-.04c-.56.32-1.1.49-1.6.49-1.54 0-4.07-4.55-4.07-7.05 0-2.66 1.45-4.9 3.66-4.9 1.03 0 1.93.65 2.68.95.32.13.68.12 1-.03.6-.28 1.41-.92 2.41-.92 1.22 0 2.28.79 3.17 1.92.13.18.1.42-.08.55-.99.72-1.47 1.52-1.47 2.43 0 .91.48 1.72 1.47 2.43.15.11.2.32.12.49Z"/><path fill="#c1c0c0" d="M8.38 3A.38.38 0 0 1 8 2.63 2.63 2.63 0 0 1 10.63 0a.37.37 0 0 1 .37.38A2.63 2.63 0 0 1 8.38 3Z"/></g></svg>