<svg xmlns="http://www.w3.org/2000/svg" width="16" height="16"><g fill="none" fill-rule="evenodd" stroke-linecap="round" stroke-linejoin="round"><path stroke="#c1c0c0" d="m10.56 1.61 2.94 8.89c-1-.52-2.4-1.3-3.5-1.5L8 3.5 6 9c-1.1.2-2.5.98-3.5 1.5l3.16-8.9c.12-.39.19-.59.3-.74.11-.13.25-.23.4-.29.18-.07.38-.07.8-.07h1.9c.42 0 .63 0 .8.07.16.06.3.16.4.3.12.14.18.34.3.74Z"/><path stroke="#AB9DF2" d="M10.41 11.27c-.43.36-1.3.6-2.28.6-1.22 0-2.24-.37-2.51-.87-.1.29-.12.62-.12.83 0 0-.06 1.04.67 1.76 0-.37.3-.68.68-.68.65 0 .65.56.65 1.02v.04c0 .69.43 1.28 1.03 1.53-.1-.19-.14-.4-.14-.61 0-.66.4-.9.85-1.19.36-.23.76-.48 1.03-.98a1.84 1.84 0 0 0 .14-1.45h0Z"/></g></svg>