<svg xmlns="http://www.w3.org/2000/svg" width="16" height="16"><g fill="none" fill-rule="evenodd"><path stroke="#FF79F1" stroke-linecap="square" d="m14.16 4.46-2.12-2.12-9.2 9.2 2.12 2.12 9.2-9.2ZM3.55 8 2.14 6.59.72 8l1.42 1.41L3.55 8Zm4.24 5.66.71-.71.7.7-.7.71-.7-.7Z"/><path stroke="#AB9DF2" stroke-linecap="square" d="m12.04 9.41 2.82 2.83-2.12 2.12-2.83-2.82 2.13-2.13ZM9.2 2.34 7.79.93l-.7.7L8.5 3.06l.7-.7ZM14.86 8l-.7-.7-.71.7.7.7.71-.7Z"/><path stroke="#FF6188" stroke-linecap="square" d="m4.26 1.64 2.82 2.82L4.96 6.6 2.13 3.76z"/><path stroke="#FF79F1" stroke-linejoin="round" d="m.37 5.53.7-.71M6.03 15.42l.7-.7"/></g></svg>