<svg xmlns="http://www.w3.org/2000/svg" width="16" height="16"><path fill="none" fill-rule="evenodd" stroke="#A9DC76" d="M2.88 14.5c-.65 0-1.38-.73-1.38-1.37V4.88c0-.65.73-1.38 1.37-1.38h8.26c.64 0 1.37.73 1.37 1.38v8.25c0 .64-.73 1.37-1.37 1.37H2.88ZM2 3.9c1.5-2.25 2-2.4 2.87-2.4h8.26c.64 0 1.37.73 1.37 1.38v8.25c0 .87-.25 1.47-2.5 2.97M5.5 5v1m0 6v1M7 7.75c0-.69-.54-1.25-1.2-1.25h-.6c-.66 0-1.2.56-1.2 1.25S4.54 9 5.2 9h.6c.66 0 1.2.56 1.2 1.25s-.54 1.25-1.2 1.25h-.6c-.66 0-1.2-.56-1.2-1.25"/></svg>