<svg xmlns="http://www.w3.org/2000/svg" width="16" height="16"><g fill="none" fill-rule="evenodd" stroke="#c1c0c0" stroke-linejoin="round"><rect width="13" height="13" x="1.5" y="1.5" stroke-linecap="round" rx="2"/><path stroke-linecap="round" d="M10.5 9.5h1v3.05"/><path d="M6 9.5h1c.28 0 .5.22.5.5v2a.5.5 0 0 1-.5.5H6a.5.5 0 0 1-.5-.5v-2c0-.28.22-.5.5-.5ZM10 3.5h1c.28 0 .5.22.5.5v2a.5.5 0 0 1-.5.5h-1a.5.5 0 0 1-.5-.5V4c0-.28.22-.5.5-.5Z"/><path stroke-linecap="round" d="M5.5 3.5h1v3.05"/></g></svg>