<svg xmlns="http://www.w3.org/2000/svg" width="16" height="16"><g fill="none" fill-rule="evenodd" stroke="#FF6188" stroke-linejoin="round"><path stroke-linecap="square" d="M4.5 2.5c2-.5 2.25-2 3.5-2s1.5 1 1.5 2.5.25 2.5-1.5 2.5c-1.17 0-1.33-.67-.5-2-1.33 0-2.33-.33-3-1Z"/><path stroke-linecap="square" d="M11 1.5c1.67 2 2.5 4.33 2.5 7s-1 5-3 7c-.17-3.33-1.17-5-3-5s-2.83 1.67-3 5a5.5 5.5 0 0 1-1.75-4c0-2.25 1.25-4 4.75-4C9 7.5 12 7 11 1.5Z"/><path stroke-linecap="round" d="M3 9c-1-.67-1.5-2.17-1.5-4.5"/></g></svg>