<svg xmlns="http://www.w3.org/2000/svg" width="16" height="16"><g fill="none" fill-rule="evenodd"><path stroke="#78C0E8" stroke-linecap="round" d="M10.8 3.5c.13-.28.27-.53.45-.75.67-.83 1.75-1.25 3.25-1.25-.5 2.17-1 3.5-1.5 4s-1.33.83-2.5 1c-.03-.45-.05-.79-.05-1"/><circle cx="5.5" cy="4.5" r="1" stroke="#FFD866"/><path stroke="#FFD866" stroke-linecap="round" stroke-linejoin="round" d="M8.5 10c.67.17 1.17.08 1.5-.25.67.17 1.17-.08 1.5-.75.83-.17 1.17-.67 1-1.5"/><path stroke="#FC9867" stroke-linecap="square" stroke-linejoin="round" d="M14.75 10c0 .67-.58 1-1.75 1-.33.33-.67.5-1 .5-.33 0-.67-.17-1-.5-.33.33-.67.58-1 .75-.33.17-.75.08-1.25-.25l.75 2c.17.5 0 .83-.5 1-.43.14-.75-.25-1.25-.25s-.56.65-.75.75c-.67.33-1.17.17-1.5-.5L5 13c-.33.33-.75.5-1.25.5-.55 0-2.03-1.2-2.79-3.5A9.54 9.54 0 0 1 .5 7C.5 2.75 4 1.5 6 1.5c1.33 0 2.5.67 3.5 2l2.5 1-3.5 2 7 1.5c.17 1-.08 1.67-.75 2Z"/><path stroke="#A9DC76" stroke-linecap="round" stroke-linejoin="round" d="m8.5 6.5 7 1.5c.17 1-.08 1.67-.75 2 0 .67-.58 1-1.75 1-.33.33-.67.5-1 .5-.33 0-.67-.17-1-.5-.33.33-.67.58-1 .75-.33.17-.75.08-1.25-.25"/><path stroke="#FFD866" stroke-linecap="round" stroke-linejoin="round" d="m8.75 11.5.75 2c.17.5 0 .83-.5 1-.43.14-.75-.25-1.25-.25s-.56.65-.75.75c-.67.33-1.17.17-1.5-.5L5 13c-.33.33-.75.5-1.25.5-.55 0-2.03-1.2-2.79-3.5"/><path stroke="#FC9867" stroke-linecap="round" stroke-linejoin="round" d="M.96 10A9.54 9.54 0 0 1 .5 7C.5 2.75 4 1.5 6 1.5c1.33 0 2.5.67 3.5 2l2.5 1-3.5 2M1 10c1.33.33 2.33.17 3-.5 2.33.33 3.83-.67 4.5-3"/></g></svg>