<svg xmlns="http://www.w3.org/2000/svg" width="16" height="16"><g fill="none" fill-rule="evenodd"><path stroke="#E979FF" stroke-linecap="round" d="M14.5 7c0-3.7-4.2-5.58-7-6.5-2.8.92-7 2.8-7 6.5 0 4.85 5.13 5.5 7 5.5"/><path stroke="#FF6188" stroke-linecap="round" stroke-linejoin="round" d="M5.5 8.5h4c-.67.67-1.33 1-2 1-.67 0-1.33-.33-2-1Z"/><path stroke="#c1c0c0" d="M5 6.5a.5.5 0 1 0 0-1 .5.5 0 0 0 0 1Zm5 0a.5.5 0 1 0 0-1 .5.5 0 0 0 0 1Z"/><path stroke="#727072" d="M15 11.5c.27 0 .5.22.5.5v3a.5.5 0 0 1-.5.5h-5a.5.5 0 0 1-.5-.5v-3c0-.28.22-.5.5-.5h5Zm-4 0V10a1.5 1.5 0 0 1 3 0v1.5"/></g></svg>