<svg xmlns="http://www.w3.org/2000/svg" width="16" height="16"><g fill="none" fill-rule="evenodd" stroke-linecap="round" stroke-linejoin="round"><path stroke="#A9DC76" d="M7.5 11.5h3v-4h-5v2M9.5 7.5V6a1.5 1.5 0 0 0-3 0v1.5"/><path stroke="#78DCE8" d="M14.05 5.76c.9 2.5.22 5.3-1.75 7.07A6.45 6.45 0 0 1 5.5 14M2.72 11.8A6.52 6.52 0 0 1 4 2.85a6.45 6.45 0 0 1 8.64.64"/><circle cx="13.5" cy="4.5" r="1" stroke="#78DCE8"/><circle cx="4" cy="13" r="1.5" stroke="#78DCE8"/><path stroke="#78DCE8" d="m5.5 11.5 2-2M12.5 5.5l-1 1"/></g></svg>