<svg xmlns="http://www.w3.org/2000/svg" width="16" height="16"><g fill="none" fill-rule="evenodd"><path stroke="#727072" d="M15 11.5c.27 0 .5.22.5.5v3a.5.5 0 0 1-.5.5h-5a.5.5 0 0 1-.5-.5v-3c0-.28.22-.5.5-.5h5Zm-4 0V10a1.5 1.5 0 0 1 3 0v1.5"/><path stroke="#FC9867" stroke-linecap="round" stroke-linejoin="round" d="m.5 6 6 3 6-3.5M3.5 3.5l3 2 6-3.5M3.5 4v7M6.5 5.5v7"/><path stroke="#FC9867" stroke-linecap="round" stroke-linejoin="round" d="m6.5 2.5 3 1.5v3"/><path stroke="#FC9867" stroke-linecap="round" stroke-linejoin="round" d="M12.5 5.5V2L9.54.5l-6.04 3v1L.5 6v3.54l6 2.96"/></g></svg>