<svg xmlns="http://www.w3.org/2000/svg" width="16" height="16"><g fill="none" fill-rule="evenodd"><path stroke="#78DCE8" stroke-linecap="round" stroke-linejoin="round" d="M2.5 9c.98 1.12 3.02 1.5 4.5 1.5.46 0 .98-.04 1.5-.12M7 10.5v2M3 10l-.75 1.5M2.5 4C3.48 2.88 5.52 2.5 7 2.5s3.52.38 4.5 1.5M7 2.5v-2M3 3l-.75-1.5M11 3l.75-1.5"/><path stroke="#78DCE8" stroke-linejoin="round" d="M13.5 7.5v-2L12 7l-1.5-1.5V8m-3-3v2.5H9m-3-2H4.5v2H6M.5 5v3m0-1.5h2m0-1.5v3"/><path stroke="#727072" d="M15 11.5c.27 0 .5.22.5.5v3a.5.5 0 0 1-.5.5h-5a.5.5 0 0 1-.5-.5v-3c0-.28.22-.5.5-.5h5Zm-4 0V10a1.5 1.5 0 0 1 3 0v1.5"/></g></svg>