<svg xmlns="http://www.w3.org/2000/svg" width="16" height="16"><g fill="none" fill-rule="evenodd"><path stroke="#A9DC76" stroke-linecap="round" stroke-linejoin="round" d="M14.17 10.03A6.5 6.5 0 0 1 1.81 6.02"/><path stroke="#78DCE8" stroke-linecap="round" stroke-linejoin="round" d="M1.87 5.85A6.5 6.5 0 0 1 14.22 9.9"/><path stroke="#A9DC76" d="M6.36 4.9a3.5 3.5 0 1 0 3.41 6.12"/><path stroke="#78DCE8" d="M9.77 11.02a3.5 3.5 0 0 0-3.4-6.11"/><path stroke="#c1c0c0" stroke-linecap="round" stroke-linejoin="round" d="M7.86 7.77s-1.52 2.2-1.36 3.38"/><path stroke="#c1c0c0" stroke-linecap="round" stroke-linejoin="round" d="M1.85 5.9c.47-1.07 1.86-1.47 3.04-1.5 3.3-.06 2.62 5.68 5.2 6.77 1.2.52 3.45-.06 4.1-1.17"/></g></svg>