<svg xmlns="http://www.w3.org/2000/svg" width="16" height="16"><path fill="none" fill-rule="evenodd" stroke="#A9DC76" stroke-linejoin="round" d="M9.5 1.5v2.25c.52.2 1.01.47 1.43.83l.22-.13 1.73-1 1.5 2.6-1.95 1.13a4.67 4.67 0 0 1 0 1.65l.22.12 1.73 1-1.5 2.6-1.95-1.13c-.42.35-.9.64-1.44.83l.01 2.25h-3v-2.25a4.51 4.51 0 0 1-1.43-.84v.01l-1.95 1.13-1.5-2.6 1.95-1.13a4.67 4.67 0 0 1 0-1.65l-.22-.12-1.73-1 1.5-2.6 1.95 1.13c.42-.35.9-.64 1.44-.83L6.5 1.5h3Zm-4 5L7 8 5.5 9.5m3-3L10 8 8.5 9.5"/></svg>