<svg xmlns="http://www.w3.org/2000/svg" width="16" height="16"><g fill="none" fill-rule="evenodd"><path stroke="#A9DC76" stroke-linecap="round" stroke-linejoin="round" d="M14.5 4.5v-1a1 1 0 0 0-1-1h-10a1 1 0 0 0-1 1v9c-1 0-1.67-.33-2-1 0 3 .67 3 2 3h12a1 1 0 0 0 0-2V7M5.25 2.25 4.5 1.5l-1 1-1-1v1h-1l1 1-1 1 1 1-1 1 1 1-1 1 .75.75M15 9.5a.5.5 0 1 0 0-1H9.5V9a.5.5 0 0 1-.5.5h-.5v3h1a1 1 0 0 1 0 2"/><path stroke="#c1c0c0" stroke-linecap="round" stroke-linejoin="round" d="m9.5 6.5 1-1 1 1 1-1 1 1 1-1m-8 0a1 1 0 1 0-2 0"/><path stroke="#FFD866" d="M10 10.5h3m0 2h-2"/></g></svg>