<svg xmlns="http://www.w3.org/2000/svg" width="16" height="16"><g fill="none" fill-rule="evenodd"><path stroke="#6EE6CC" stroke-linecap="round" stroke-linejoin="round" d="M4.5 13.5 3.05 8.42M2.99 4.56a2 2 0 1 0 .06 3.86L4.5 13.5"/><path stroke="#FF6188" stroke-linecap="round" stroke-linejoin="round" d="m2.5 6.5 3.88-2.82A2 2 0 1 1 10 2.3"/><path stroke="#78DCE8" stroke-linecap="round" stroke-linejoin="round" d="M14.3 8.33a2 2 0 1 0-2.43-3L8.01 2.5"/><path stroke="#A9DC76" stroke-linecap="round" stroke-linejoin="round" d="M10.06 14.89a2 2 0 1 0 2-3.3l1.44-5.09"/><path stroke="#AB9DF2" stroke-linecap="round" stroke-linejoin="round" d="M11.5 13.5h-5a2 2 0 1 1-3.73-1"/><circle cx="11.5" cy="13.5" r="1" fill="#AB9DF2"/><circle cx="4.5" cy="13.5" r="1" fill="#6EE6CC"/><circle cx="2.5" cy="6.5" r="1" fill="#FF6188"/><circle cx="8" cy="2.5" r="1" fill="#78DCE8"/><circle cx="13.5" cy="6.5" r="1" fill="#A9DC76"/></g></svg>