<svg xmlns="http://www.w3.org/2000/svg" width="16" height="16"><g fill="none" fill-rule="evenodd" stroke-linejoin="round"><path stroke="#c1c0c0" stroke-linecap="round" d="m1.87 8 .7-2.74a1 1 0 0 1 .96-.76h10.94a1 1 0 0 1 .97 1.24L15.12 7M6.5 13.5H2A1.5 1.5 0 0 1 .5 12V3.5a1 1 0 0 1 1-1h5a1 1 0 0 1 1 1v1"/><path stroke="#FFD866" d="M10.5 9v4.5a1 1 0 0 1-2 0V13m7-2.25c0-.69-.54-1.25-1.2-1.25h-.6c-.66 0-1.2.56-1.2 1.25S13.04 12 13.7 12h.6c.66 0 1.2.56 1.2 1.25s-.54 1.25-1.2 1.25h-.6c-.66 0-1.2-.56-1.2-1.25"/></g></svg>