<svg xmlns="http://www.w3.org/2000/svg" width="16" height="16"><g fill="none" fill-rule="evenodd"><path stroke="#c1c0c0" stroke-linecap="round" stroke-linejoin="round" d="m1.87 8 .7-2.74a1 1 0 0 1 .96-.76h10.94a1 1 0 0 1 .97 1.24L15.12 7M6.5 13.5H2A1.5 1.5 0 0 1 .5 12V3.5a1 1 0 0 1 1-1h5a1 1 0 0 1 1 1v1"/><g stroke="#78C0E8"><path stroke-linecap="round" d="m8.73 12.93 1.25.24.12.5h1l.25-.5h1.25l.25.5h1l.13-.5 1.25-.24"/><path stroke-linecap="round" d="M8.65 13.88c0 1.12 1.41 1.62 3.35 1.62 1.94 0 3.35-.5 3.35-1.63v-2.5l.65-.62-.65-1-.77.63-.77-.63.25-.75-1.29-.5-.38.75h-.78l-.38-.75-1.3.5.26.75-.77.63-.77-.63-.65 1 .65.63v2.5Z"/><path d="M13 11.5h1M10 11.5h1"/></g></g></svg>