<svg xmlns="http://www.w3.org/2000/svg" width="16" height="16"><g fill="none" fill-rule="evenodd"><path stroke="#c1c0c0" stroke-linecap="round" stroke-linejoin="round" d="m1.87 8 .7-2.74a1 1 0 0 1 .96-.76h10.94a1 1 0 0 1 .97 1.24L15.12 7M6.5 13.5H2A1.5 1.5 0 0 1 .5 12V3.5a1 1 0 0 1 1-1h5a1 1 0 0 1 1 1v1"/><path d="M8 8h8v8H8z"/><path stroke="#78DCE8" stroke-linejoin="round" d="m12 7.5-1.5 5h2l.5 3m-4-8h5c.83 0 1.5.67 1.5 1.5v5c0 .83-.67 1.5-1.5 1.5H9A1.5 1.5 0 0 1 7.5 14V9c0-.83.67-1.5 1.5-1.5Zm4 3h1m-5 0h1"/></g></svg>