<svg xmlns="http://www.w3.org/2000/svg" width="16" height="16"><g fill="none" fill-rule="evenodd" stroke-linecap="round" stroke-linejoin="round"><path stroke="#c1c0c0" d="m1.87 8 .7-2.74a1 1 0 0 1 .96-.76h10.94a1 1 0 0 1 .97 1.24L15.12 7M6.5 13.5H2A1.5 1.5 0 0 1 .5 12V3.5a1 1 0 0 1 1-1h5a1 1 0 0 1 1 1v1"/><path stroke="#78C0E8" d="M7.5 12.43c0-1.14.83-2.07 1.86-2.07a2.3 2.3 0 0 1 1.47-1.74 2.15 2.15 0 0 1 2.18.46c.6.55.87 1.39.7 2.2h.4c.77 0 1.39.72 1.39 1.61 0 .89-.62 1.61-1.39 1.61H9.36c-1.03 0-1.86-.93-1.86-2.07Z"/></g></svg>