<svg xmlns="http://www.w3.org/2000/svg" width="16" height="16"><g fill="none" fill-rule="evenodd"><path stroke="#c1c0c0" stroke-linecap="round" stroke-linejoin="round" d="m1.87 8 .7-2.74a1 1 0 0 1 .96-.76h10.94a1 1 0 0 1 .97 1.24L15.12 7M6.5 13.5H2A1.5 1.5 0 0 1 .5 12V3.5a1 1 0 0 1 1-1h5a1 1 0 0 1 1 1v1"/><path stroke="#FC9867" d="M9.5 8.5h1a1 1 0 0 1 1 1v1a1 1 0 0 1-1 1h-1a1 1 0 0 1-1-1v-1a1 1 0 0 1 1-1Zm4 4h1a1 1 0 0 1 1 1v1a1 1 0 0 1-1 1h-1a1 1 0 0 1-1-1v-1a1 1 0 0 1 1-1Zm-4-1v3h3"/></g></svg>