<svg xmlns="http://www.w3.org/2000/svg" width="16" height="16"><g fill="none" fill-rule="evenodd" stroke-linecap="round"><path stroke="#c1c0c0" stroke-linejoin="round" d="M4.5 4.5H12c.83 0 1.5.67 1.5 1.5v.5m-7 7H2A1.5 1.5 0 0 1 .5 12V3.5a1 1 0 0 1 1-1h5a1 1 0 0 1 1 1v1"/><path stroke="#AB9DF2" d="m13.02 15.4-.52-.9m.52-.9-.52.9m2-2 .28.55a1 1 0 0 1-.9 1.45H12.5m-1.5-5 .1-.21a1 1 0 0 1 1.8 0l.6 1.21m-1.12-.07 1.12.07m.62-.93-.62.94m-3 3.99h-.38a1 1 0 0 1-.9-1.45L10 11.5m.62.93L10 11.5m-1.12.07L10 11.5"/></g></svg>