<svg xmlns="http://www.w3.org/2000/svg" width="16" height="16"><g fill="none" fill-rule="evenodd" stroke-linecap="round" stroke-linejoin="round"><path stroke="#c1c0c0" d="m1.87 8 .7-2.74a1 1 0 0 1 .96-.76h10.94a1 1 0 0 1 .97 1.24L15.12 7M6.5 13.5H2A1.5 1.5 0 0 1 .5 12V3.5a1 1 0 0 1 1-1h5a1 1 0 0 1 1 1v1"/><path stroke="#78DCE8" d="M7.5 14.75c0 .58.42.75 1 .75.58 0 .56-1.56.94-3.5.4-1.94.48-3.5 1.06-3.5.58 0 1 .17 1 .75M8.28 11.5h2.33m5.39 2h-.5c-1.5 0-1.82-3-3-3H12m0 3h.5c1.5 0 1.82-3 3-3h.5"/></g></svg>