<svg xmlns="http://www.w3.org/2000/svg" width="16" height="16"><g fill="none" fill-rule="evenodd" stroke-linecap="round" stroke-linejoin="round"><path stroke="#c1c0c0" d="M4.5 4.5H12c.83 0 1.5.67 1.5 1.5v.5m-7 7H2A1.5 1.5 0 0 1 .5 12V3.5a1 1 0 0 1 1-1h5a1 1 0 0 1 1 1v1"/><g stroke="#AB9DF2"><path d="M10.5 14a1.5 1.5 0 1 1-3 0 1.5 1.5 0 0 1 3 0h0ZM11.97 8.53a1.56 1.56 0 0 0-.84 2.98c1.18.48 1.45.95 1.3 2.23-.1.8.43 1.56 1.22 1.73a1.56 1.56 0 0 0 .84-2.98c-1.18-.48-1.46-.95-1.31-2.23.1-.8-.42-1.56-1.21-1.73Z"/><path d="M10.5 14a1.5 1.5 0 1 1-3 0 1.5 1.5 0 0 1 3 0h0Z"/></g></g></svg>