<svg xmlns="http://www.w3.org/2000/svg" width="16" height="16"><g fill="none" fill-rule="evenodd"><path stroke="#c1c0c0" stroke-linecap="round" stroke-linejoin="round" d="m1.87 8 .7-2.74a1 1 0 0 1 .96-.76h10.94a1 1 0 0 1 .97 1.24L15.12 7M6.5 13.5H2A1.5 1.5 0 0 1 .5 12V3.5a1 1 0 0 1 1-1h5a1 1 0 0 1 1 1v1"/><path stroke="#727072" d="M10.5 10.5v3m-.75-4.75L8 7m4.75 4.75-1.5-1.5"/><path stroke="#FC9867" d="M10.5 15.5a1 1 0 1 0 0-2 1 1 0 0 0 0 2Zm0-5a1 1 0 1 0 0-2 1 1 0 0 0 0 2Zm3 3a1 1 0 1 0 0-2 1 1 0 0 0 0 2Z"/></g></svg>