<svg xmlns="http://www.w3.org/2000/svg" width="16" height="16"><g fill="none" fill-rule="evenodd" stroke-linecap="round" stroke-linejoin="round"><path stroke="#c1c0c0" d="m1.87 8 .7-2.74a1 1 0 0 1 .96-.76h10.94a1 1 0 0 1 .97 1.24L15.12 7M6.5 13.5H2A1.5 1.5 0 0 1 .5 12V3.5a1 1 0 0 1 1-1h5a1 1 0 0 1 1 1v1"/><path stroke="#78DCE8" d="M12.5 10.5h-2m3-1V9c0-.25-.25-.5-.5-.5h-1.75c-.5 0-.75.25-.75.75v1.25H9.25c-.5 0-.75.25-.75.75v1.5c0 .5.25.75.75.75h1.25v-.25c0-.5.25-.75.75-.75h.25"/><path stroke="#FFD866" d="M13.5 13.5h-2m-1 1v.5c0 .25.25.5.5.5h1.75c.5 0 .75-.25.75-.75V13.5h1.25c.5 0 .75-.25.75-.75v-1.5c0-.5-.25-.75-.75-.75H13.5v.25c0 .5-.25.75-.75.75h-.25"/></g></svg>