<svg xmlns="http://www.w3.org/2000/svg" width="16" height="16"><g fill="none" fill-rule="evenodd"><path stroke="#c1c0c0" stroke-linecap="round" stroke-linejoin="round" d="M4.5 4.5H12c.83 0 1.5.67 1.5 1.5v.5m-7 7H2A1.5 1.5 0 0 1 .5 12V3.5a1 1 0 0 1 1-1h5a1 1 0 0 1 1 1v1"/><path stroke="#FFD866" d="M11.5 11a1.5 1.5 0 0 0-3 0v.5h3V11Z"/><path stroke="#A9DC76" d="M11 12.5a1.5 1.5 0 0 0 0 3h.5v-3H11Z"/><path stroke="#78DCE8" d="M12.5 13a1.5 1.5 0 0 0 3 0v-.5h-3v.5Z"/><path stroke="#FF6188" d="M13 11.5a1.5 1.5 0 0 0 0-3h-.5v3h.5Z"/></g></svg>