<svg xmlns="http://www.w3.org/2000/svg" width="16" height="16"><g fill="none" fill-rule="evenodd"><path stroke="#c1c0c0" stroke-linecap="round" stroke-linejoin="round" d="M4.5 4.5H12c.83 0 1.5.67 1.5 1.5v.5m-7 7H2A1.5 1.5 0 0 1 .5 12V3.5a1 1 0 0 1 1-1h5a1 1 0 0 1 1 1v1"/><path stroke="#727072" d="M11.5 7v1.5"/><path stroke="#727072" stroke-linecap="round" stroke-linejoin="round" d="m12 10.5 2.5 5m-3.5-5-2.5 5M7.8 11a4 4 0 0 0 5.49 2.08"/><circle cx="11.5" cy="9.5" r="1" stroke="#78DCE8"/></g></svg>