<svg xmlns="http://www.w3.org/2000/svg" width="16" height="16"><g fill="none" fill-rule="evenodd"><path stroke="#c1c0c0" stroke-linecap="round" stroke-linejoin="round" d="m1.87 8 .7-2.74a1 1 0 0 1 .96-.76h10.94a1 1 0 0 1 .97 1.24L15.12 7M6.5 13.5H2A1.5 1.5 0 0 1 .5 12V3.5a1 1 0 0 1 1-1h5a1 1 0 0 1 1 1v1"/><path stroke="#727072" d="M14.75 13.5c.41 0 .75.34.75.75v.5c0 .41-.34.75-.75.75h-.5a.75.75 0 0 1-.75-.75v-5.5c0-.41.34-.75.75-.75h.5c.41 0 .75.34.75.75v.5c0 .41-.34.75-.75.75h-5.5a.75.75 0 0 1-.75-.75v-.5c0-.41.34-.75.75-.75h.5c.41 0 .75.34.75.75v5.5c0 .41-.34.75-.75.75h-.5a.75.75 0 0 1-.75-.75v-.5c0-.41.34-.75.75-.75h5.5Z"/></g></svg>