<svg xmlns="http://www.w3.org/2000/svg" width="16" height="16"><g fill="none" fill-rule="evenodd"><path stroke="#c1c0c0" stroke-linecap="round" stroke-linejoin="round" d="M4.5 4.5H12c.83 0 1.5.67 1.5 1.5v.5m-7 7H2A1.5 1.5 0 0 1 .5 12V3.5a1 1 0 0 1 1-1h5a1 1 0 0 1 1 1v1"/><path stroke="#6EE6CC" d="M12 8.5c2-.5 3.5.65 3.5 2.5 0 1.25-.75 2-1.5 2.5-.44.3-.5.6-.5 2h-1c0-1.25-2-1.5-2 .5 0-2-2-1.75-2-.5h-1c0-1-.65-2.51 1-3.5-.08-.13-.37-1.35 0-1.5a6.43 6.43 0 0 1 4 .5c.97.52 1.97.68 3 .5m-4.5 1-1.5.25a3.65 3.65 0 0 1-1-.75"/></g></svg>