<svg xmlns="http://www.w3.org/2000/svg" width="16" height="16"><g fill="none" fill-rule="evenodd"><path stroke="#c1c0c0" stroke-linecap="round" stroke-linejoin="round" d="M4.5 4.5H12c.83 0 1.5.67 1.5 1.5v.5m-7 7H2A1.5 1.5 0 0 1 .5 12V3.5a1 1 0 0 1 1-1h5a1 1 0 0 1 1 1v1"/><path stroke="#FFD866" d="M11 9.5h-.68c-.41 0-.82.4-.82.82v1.09c0 .6-1.05 1.09-1.5 1.09.45 0 1.5.49 1.5 1.1v1.08c0 .41.4.82.82.82H11m2-6h.68c.4 0 .82.4.82.82v1.09c0 .6 1.05 1.09 1.5 1.09-.45 0-1.5.49-1.5 1.1v1.08c0 .4-.41.82-.82.82H13"/></g></svg>