<svg xmlns="http://www.w3.org/2000/svg" width="16" height="16"><g fill="none" fill-rule="evenodd"><path stroke="#c1c0c0" stroke-linecap="round" stroke-linejoin="round" d="m1.87 8 .7-2.74a1 1 0 0 1 .96-.76h10.94a1 1 0 0 1 .97 1.24L15.12 7M6.5 13.5H2A1.5 1.5 0 0 1 .5 12V3.5a1 1 0 0 1 1-1h5a1 1 0 0 1 1 1v1"/><g stroke="#AB9DF2"><path d="M12 12.5h1m-3 0h1m.5-2.5V9m4 3v2m-8-2v2"/><path stroke-linecap="square" d="M8.5 14.75v-3.5c0-.41.34-.75.75-.75h4.5c.41 0 .75.34.75.75v3.5c0 .41-.34.75-.75.75h-4.5a.75.75 0 0 1-.75-.75Zm3-5.75a.5.5 0 1 0 0-1 .5.5 0 0 0 0 1Z"/></g></g></svg>