<svg xmlns="http://www.w3.org/2000/svg" width="16" height="16"><g fill="none" fill-rule="evenodd"><path stroke="#c1c0c0" stroke-linecap="round" stroke-linejoin="round" d="M4.5 4.5H12c.83 0 1.5.67 1.5 1.5v.5m-7 7H2A1.5 1.5 0 0 1 .5 12V3.5a1 1 0 0 1 1-1h5a1 1 0 0 1 1 1v1"/><path stroke="#FFD866" d="M12 13.5a1.5 1.5 0 1 0 0-3 1.5 1.5 0 0 0 0 3Zm-3-4a.5.5 0 1 0 0-1 .5.5 0 0 0 0 1Zm6 0a.5.5 0 1 0 0-1 .5.5 0 0 0 0 1Zm0 6a.5.5 0 1 0 0-1 .5.5 0 0 0 0 1Zm-6 0a.5.5 0 1 0 0-1 .5.5 0 0 0 0 1Zm4-4.5 1.5-1.5M13 13l1.5 1.5m-5 0L11 13M9.5 9.5 11 11"/></g></svg>