<svg xmlns="http://www.w3.org/2000/svg" width="16" height="16"><g fill="none" fill-rule="evenodd"><path stroke="#c1c0c0" stroke-linecap="round" stroke-linejoin="round" d="M4.5 4.5H12c.83 0 1.5.67 1.5 1.5v.5m-7 7H2A1.5 1.5 0 0 1 .5 12V3.5a1 1 0 0 1 1-1h5a1 1 0 0 1 1 1v1"/><g stroke="#FF6188"><path d="M12.5 10.5v-1a1 1 0 0 0-2 0v1m2.67 0c.24.37.3 1.05.33 1.5v1.5c0 1.15-.85 2-2 2s-2-.85-2-2V12a3.4 3.4 0 0 1 .33-1.5h3.34Z"/><path stroke-linejoin="round" d="M7.5 12.5h2m4 0h2m-4 3V13m-3.75 2.75L9.5 14.5m5.75 1.25L13.5 14.5M7.75 9.25 9.5 10.5m5.75-1.25L13.5 10.5"/></g></g></svg>