<svg xmlns="http://www.w3.org/2000/svg" width="16" height="16"><g fill="none" fill-rule="evenodd" stroke-linejoin="round"><path stroke="#c1c0c0" stroke-linecap="round" d="m1.87 8 .7-2.74a1 1 0 0 1 .96-.76h10.94a1 1 0 0 1 .97 1.24L15.12 7M6.5 13.5H2A1.5 1.5 0 0 1 .5 12V3.5a1 1 0 0 1 1-1h5a1 1 0 0 1 1 1v1"/><path stroke="#727072" d="M10.5 13.5v.5a1.5 1.5 0 0 0 3 0v-.5m-1.5-6c.75 0 1 .5 1 1 1 .5 1.5 1.25 1.5 2.5v1c0 .5.54 1.24 1 1.5h-7c.46-.26 1-1 1-1.5v-1c0-1.25.5-2 1.5-2.5 0-.5.25-1 1-1Z"/></g></svg>