<svg xmlns="http://www.w3.org/2000/svg" width="16" height="16"><g fill="none" fill-rule="evenodd" stroke-linecap="round" stroke-linejoin="round"><path stroke="#c1c0c0" d="M4.5 4.5H12c.83 0 1.5.67 1.5 1.5v.5m-7 7H2A1.5 1.5 0 0 1 .5 12V3.5a1 1 0 0 1 1-1h5a1 1 0 0 1 1 1v1"/><path stroke="#FC9867" d="M15.1 10.71s.88-1.21.04-2.38c-.83-1.17-2.23-.76-2.23-.76S10.82 8.64 9.66 9.4c-.9.62-1.42 1.4-.65 2.69.77 1.3 2.92.75 2.92.75m-3.02-.55s-.89 1.21-.05 2.38c.83 1.17 2.23.76 2.23.76s2.09-1.07 3.25-1.83c.9-.62 1.42-1.4.65-2.69-.77-1.3-2.92-.75-2.92-.75m-1.15.7 2.63-1.57m-3.13 4.46 2.63-1.57"/></g></svg>