<svg xmlns="http://www.w3.org/2000/svg" width="16" height="16"><g fill="none" fill-rule="evenodd" stroke-linecap="round" stroke-linejoin="round"><path stroke="#c1c0c0" d="m1.87 8 .7-2.74a1 1 0 0 1 .96-.76h10.94a1 1 0 0 1 .97 1.24L15.12 7M6.5 13.5H2A1.5 1.5 0 0 1 .5 12V3.5a1 1 0 0 1 1-1h5a1 1 0 0 1 1 1v1"/><path stroke="#727072" d="M10.5 14.5c-1.5.5-1.5-1-2.25-1.25m5.06 2.25v-1.56c0-.45.05-.63-.22-.9 1.23-.13 2.41-.62 2.41-2.67 0-.54-.2-1.05-.57-1.43.17-.47.16-.98-.04-1.43 0 0-.48-.13-1.53.58a5.28 5.28 0 0 0-2.72 0c-1.05-.71-1.53-.58-1.53-.58-.2.45-.21.96-.04 1.43-.37.38-.57.9-.57 1.43 0 2.05 1.18 2.54 2.4 2.67-.26.27-.26.54-.21.9v1.56"/></g></svg>