<svg xmlns="http://www.w3.org/2000/svg" width="16" height="16"><g fill="none" fill-rule="evenodd"><path stroke="#c1c0c0" stroke-linecap="round" stroke-linejoin="round" d="m1.87 8 .7-2.74a1 1 0 0 1 .96-.76h10.94a1 1 0 0 1 .97 1.24L15.12 7M6.5 13.5H2A1.5 1.5 0 0 1 .5 12V3.5a1 1 0 0 1 1-1h5a1 1 0 0 1 1 1v1"/><path stroke="#AB9DF2" d="M13.47 10.5c-.14-1.14-.75-2-1.47-2-.83 0-1.5 1.12-1.5 2.5 0 .82.24 1.54.6 2m1.72 1.93c.9.7 1.93.89 2.45.37.58-.58.27-1.85-.71-2.83a3.27 3.27 0 0 0-1.84-.99m-3.66 1.34c-.7.9-.89 1.94-.37 2.45.58.59 1.85.27 2.82-.7.58-.58.93-1.26 1-1.84"/></g></svg>