<svg xmlns="http://www.w3.org/2000/svg" width="16" height="16"><g fill="none" fill-rule="evenodd" stroke-linecap="round" stroke-linejoin="round"><path stroke="#c1c0c0" d="m1.87 8 .7-2.74a1 1 0 0 1 .96-.76h10.94a1 1 0 0 1 .97 1.24L15.12 7M6.5 13.5H2A1.5 1.5 0 0 1 .5 12V3.5a1 1 0 0 1 1-1h5a1 1 0 0 1 1 1v1"/><path stroke="#FF6188" d="M9.2 15.41a6.1 6.1 0 0 0 2.1-2.95c.5-1.26 1-2.34.78-3.58-.03-.2-.3-.39-.44-.38-.56.04-.52.66-.47 1.03.13.92.85 1.99 1.53 3 .69 1 1.26 1.16 2.04 1.21.27.02.67-.08.74-.31.41-1.52-4.86-.3-6.61 1.12-.22.17-.47.54-.33.78.11.2.47.22.66.08h0Z"/></g></svg>