<svg xmlns="http://www.w3.org/2000/svg" width="16" height="16"><g fill="none" fill-rule="evenodd" stroke-linecap="round" stroke-linejoin="round"><path stroke="#c1c0c0" d="M4.5 4.5H12c.83 0 1.5.67 1.5 1.5v.5m-7 7H2A1.5 1.5 0 0 1 .5 12V3.5a1 1 0 0 1 1-1h5a1 1 0 0 1 1 1v1"/><path stroke="#FF79F1" d="M11.82 11.13c1 .57 1.82.4 2.64-.11.8-.51 1.47-1.5.7-2.23-.38-.37-1.77-.43-3.06.1-1.3.53-2.5 1.62-2.59 2.21-.17 1.18 1.72 1.55 1.99 2.28.26.73.15 1.06-.12 1.52-.26.46-1.06.88-1.52.37-.45-.51.91-1.48 1.62-1.75.71-.27 1.7-.22 2.02.13.31.35-.04.97-.02.97"/></g></svg>