<svg xmlns="http://www.w3.org/2000/svg" width="16" height="16"><g fill="none" fill-rule="evenodd"><path stroke="#c1c0c0" stroke-linecap="round" stroke-linejoin="round" d="m1.87 8 .7-2.74a1 1 0 0 1 .96-.76h10.94a1 1 0 0 1 .97 1.24L15.12 7M6.5 13.5H2A1.5 1.5 0 0 1 .5 12V3.5a1 1 0 0 1 1-1h5a1 1 0 0 1 1 1v1"/><g stroke="#78C0E8"><path stroke-linecap="square" d="m10.5 12 3-2M10.5 13l3 1"/><circle cx="14.5" cy="14.5" r="1"/><circle cx="14.5" cy="9.5" r="1"/><circle cx="9.5" cy="12.5" r="1"/></g></g></svg>