<svg xmlns="http://www.w3.org/2000/svg" width="16" height="16"><g fill="none" fill-rule="evenodd"><path stroke="#c1c0c0" stroke-linecap="round" stroke-linejoin="round" d="m1.87 8 .7-2.74a1 1 0 0 1 .96-.76h10.94a1 1 0 0 1 .97 1.24L15.12 7M6.5 13.5H2A1.5 1.5 0 0 1 .5 12V3.5a1 1 0 0 1 1-1h5a1 1 0 0 1 1 1v1"/><g stroke="#78DCE8"><circle cx="11.5" cy="11.5" r="2.5"/><path stroke-linecap="round" d="M11.5 11.5V7m0 4.5L7.98 8.7m3.52 2.8 1.95 4.05M11.5 11.5l4.39 1m-4.39-1 3.52-2.8m-3.52 2.8-4.39 1m4.39-1-1.95 4.05"/></g></g></svg>