<svg xmlns="http://www.w3.org/2000/svg" width="16" height="16"><g fill="none" fill-rule="evenodd"><path stroke="#c1c0c0" stroke-linecap="round" stroke-linejoin="round" d="m1.87 8 .7-2.74a1 1 0 0 1 .96-.76h10.94a1 1 0 0 1 .97 1.24L15.12 7M6.5 13.5H2A1.5 1.5 0 0 1 .5 12V3.5a1 1 0 0 1 1-1h5a1 1 0 0 1 1 1v1"/><g stroke="#78DCE8"><path stroke-linejoin="round" d="M7.5 14v.5c0 .67.33 1 1 1 .67 0 1-.33 1-1v-4.25c0-.86.67-1.74 1.75-1.75 1.17 0 2.25.5 2.25 1.75s0 2-2 2.75v2.5h4V13c0-1-1.47-1.5-2-1.5m0 4V14"/><path d="M11 10.5h1"/></g></g></svg>