<svg xmlns="http://www.w3.org/2000/svg" width="16" height="16"><g fill="none" fill-rule="evenodd" stroke-linecap="round" stroke-linejoin="round"><path stroke="#c1c0c0" d="m1.87 8 .7-2.74a1 1 0 0 1 .96-.76h10.94a1 1 0 0 1 .97 1.24L15.12 7M6.5 13.5H2A1.5 1.5 0 0 1 .5 12V3.5a1 1 0 0 1 1-1h5a1 1 0 0 1 1 1v1"/><path stroke="#FFD866" d="M8.5 9.5c.67.67 1.83 1 3.5 1s2.83-.33 3.5-1m-7 3c.67.67 1.83 1 3.5 1s2.83-.33 3.5-1m-7 2v-5c.67-.67 1.83-1 3.5-1s2.83.33 3.5 1v5c-.67.67-1.83 1-3.5 1s-2.83-.33-3.5-1Z"/></g></svg>