<svg xmlns="http://www.w3.org/2000/svg" width="16" height="16"><g fill="none" fill-rule="evenodd"><path stroke="#c1c0c0" stroke-linecap="round" stroke-linejoin="round" d="M4.5 4.5H12c.83 0 1.5.67 1.5 1.5v.5m-7 7H2A1.5 1.5 0 0 1 .5 12V3.5a1 1 0 0 1 1-1h5a1 1 0 0 1 1 1v1"/><path stroke="#FFD866" d="M12.56 15.5c1.62 0 2.93-1.02 2.93-2.8 0-.76-.4-2.08-1.06-3.17-.14.82-1.07 1.09-1.07 1.09.27-1.36-.4-2.58-1.86-3.12.17 1.02-.14 2.03-1.07 3.12-.55.63-.94 1.18-.94 2.08 0 1.78 1.44 2.8 3.07 2.8Z"/><circle cx="12.5" cy="13.5" r="1" stroke="#FC9867"/></g></svg>