<svg xmlns="http://www.w3.org/2000/svg" width="16" height="16"><g fill="none" fill-rule="evenodd"><path stroke="#c1c0c0" stroke-linecap="round" stroke-linejoin="round" d="M4.5 4.5H12c.83 0 1.5.67 1.5 1.5v.5m-7 7H2A1.5 1.5 0 0 1 .5 12V3.5a1 1 0 0 1 1-1h5a1 1 0 0 1 1 1v1"/><g stroke="#78DCE8"><path stroke-linecap="round" stroke-linejoin="round" d="M8.5 12.5h5l.25-.5c-.15-.55-.46-.95-.25-1.5.47.3.65.94 1 1 .36-.04 1-1 1 0 0 0 0 1.5-1 1.5-.5 2-1.75 2.5-3.5 2.5-2.75 0-2.5-3-2.5-3Z"/><path d="M9.5 12.5v-2h1v-1h1v3"/></g></g></svg>