<svg xmlns="http://www.w3.org/2000/svg" width="16" height="16"><g fill="none" fill-rule="evenodd" stroke-linejoin="round"><path stroke="#c1c0c0" stroke-linecap="round" d="m1.87 8 .7-2.74a1 1 0 0 1 .96-.76h10.94a1 1 0 0 1 .97 1.24L15.12 7M6.5 13.5H2A1.5 1.5 0 0 1 .5 12V3.5a1 1 0 0 1 1-1h5a1 1 0 0 1 1 1v1"/><g stroke="#FF6188"><path stroke-linecap="round" d="M13.5 13c0 .75-.25 1.25-.75 1.75s-1 .75-1.75.75h-1c-.75 0-1.25-.25-1.75-.75s-.75-1-.75-1.75v-1.5h6V13Zm0-1.5h1.07c.68 0 .93.25.93 1s-.25 1-1 1h-1"/><path d="M8.5 10v-.5c0-.5.17-.83.5-1 .33-.17.5-.5.5-1V7M11.5 10v-.5c0-.5.17-.83.5-1 .33-.17.5-.5.5-1V7"/></g></g></svg>