<svg xmlns="http://www.w3.org/2000/svg" width="16" height="16"><g fill="none" fill-rule="evenodd"><path stroke="#c1c0c0" stroke-linecap="round" stroke-linejoin="round" d="m1.87 8 .7-2.74a1 1 0 0 1 .96-.76h10.94a1 1 0 0 1 .97 1.24L15.12 7M6.5 13.5H2A1.5 1.5 0 0 1 .5 12V3.5a1 1 0 0 1 1-1h5a1 1 0 0 1 1 1v1"/><path stroke="#FFD866" stroke-linecap="square" d="m9.5 9.5 4 4m-4 0 4-4m-1.65-1.89 3.54 3.54c.2.2.2.5 0 .7l-3.54 3.54a.5.5 0 0 1-.7 0L7.6 11.85a.5.5 0 0 1 0-.7l3.54-3.54c.2-.2.5-.2.7 0Z"/></g></svg>