<svg xmlns="http://www.w3.org/2000/svg" width="16" height="16"><g fill="none" fill-rule="evenodd"><path stroke="#c1c0c0" stroke-linecap="round" stroke-linejoin="round" d="m1.87 8 .7-2.74a1 1 0 0 1 .96-.76h10.94a1 1 0 0 1 .97 1.24L15.12 7M6.5 13.5H2A1.5 1.5 0 0 1 .5 12V3.5a1 1 0 0 1 1-1h5a1 1 0 0 1 1 1v1"/><path stroke="#727072" d="M8.7 8.5h1.6c.11 0 .2.09.2.2v6.6a.2.2 0 0 1-.2.2H8.7a.2.2 0 0 1-.2-.2V8.7c0-.11.09-.2.2-.2Zm2.3 2h1c.28 0 .5.22.5.5v4a.5.5 0 0 1-.5.5h-1a.5.5 0 0 1-.5-.5v-4c0-.28.22-.5.5-.5Zm4.5 5.5-2-6"/></g></svg>