<svg xmlns="http://www.w3.org/2000/svg" width="16" height="16"><g fill="none" fill-rule="evenodd"><path stroke="#c1c0c0" stroke-linecap="round" stroke-linejoin="round" d="m1.87 8 .7-2.74a1 1 0 0 1 .96-.76h10.94a1 1 0 0 1 .97 1.24L15.12 7M6.5 13.5H2A1.5 1.5 0 0 1 .5 12V3.5a1 1 0 0 1 1-1h5a1 1 0 0 1 1 1v1"/><path stroke="#727072" stroke-linecap="round" stroke-linejoin="round" d="M15.48 13.42c-.77 1.39-1.39 2.08-1.95 2.08a1.5 1.5 0 0 1-.77-.22 1.25 1.25 0 0 0-1.2-.03c-.3.17-.6.25-.87.25-.83 0-2.19-2.29-2.19-3.54 0-1.34.78-2.46 1.97-2.46.56 0 1.04.33 1.45.47.17.07.36.06.53 0 .33-.15.76-.47 1.3-.47.66 0 1.23.4 1.7.97.08.08.06.2-.04.27-.53.36-.79.76-.79 1.22 0 .46.26.86.8 1.22.08.06.1.16.06.24Z"/><path fill="#727072" d="M12.25 9a.25.25 0 0 1-.25-.25A1.75 1.75 0 0 1 13.75 7a.25.25 0 0 1 .25.25C14 8.22 13.22 9 12.25 9Z"/></g></svg>