<svg xmlns="http://www.w3.org/2000/svg" width="16" height="16"><g fill="none" fill-rule="evenodd" stroke-linejoin="round"><path stroke="#c1c0c0" stroke-linecap="round" d="m1.87 8 .7-2.74a1 1 0 0 1 .96-.76h10.94a1 1 0 0 1 .97 1.24L15.12 7M6.5 13.5H2A1.5 1.5 0 0 1 .5 12V3.5a1 1 0 0 1 1-1h5a1 1 0 0 1 1 1v1"/><g stroke="#78DCE8"><path stroke-linecap="round" d="M15.5 10.75c0-.69-.54-1.25-1.2-1.25h-.6c-.66 0-1.2.56-1.2 1.25S13.04 12 13.7 12h.6c.66 0 1.2.56 1.2 1.25s-.54 1.25-1.2 1.25h-.6c-.66 0-1.2-.56-1.2-1.25"/><path d="M9.5 9.5V15m-2-5.5h4"/></g></g></svg>