<svg xmlns="http://www.w3.org/2000/svg" width="16" height="16"><g fill="none" fill-rule="evenodd"><path stroke="#c1c0c0" stroke-linecap="round" stroke-linejoin="round" d="M4.5 4.5H12c.83 0 1.5.67 1.5 1.5v.5m-7 7H2A1.5 1.5 0 0 1 .5 12V3.5a1 1 0 0 1 1-1h5a1 1 0 0 1 1 1v1"/><path stroke="#E979FF" stroke-linejoin="round" d="m9.06 12.28 2.12-.77a1.1 1.1 0 0 1 1.47.83l.37 2.18c.12.7-.65 1.22-1.28.87a.61.61 0 0 1-.2-.2l-.11-.15a2.63 2.63 0 0 0-2.03-1.15h-.2a.63.63 0 0 1-.27-.09.83.83 0 0 1 .13-1.52Z"/><path fill="#E979FF" fill-rule="nonzero" d="M9.22 10.8c.4.23.95.04 1.22-.43.28-.47.18-1.04-.22-1.27-.4-.23-.94-.04-1.22.43-.27.47-.17 1.04.22 1.27ZM11.84 9.8c.4.23.95.04 1.22-.43.28-.47.18-1.04-.22-1.27-.4-.23-.94-.04-1.22.43-.27.47-.17 1.04.22 1.27ZM13.89 10.8c.4.23.94.04 1.22-.43s.18-1.04-.22-1.27c-.4-.23-.95-.04-1.22.43-.28.47-.18 1.04.22 1.27ZM14.58 13.6c.4.22.94.03 1.22-.44.27-.47.17-1.04-.22-1.27-.4-.23-.95-.04-1.22.43-.28.47-.18 1.04.22 1.27Z"/></g></svg>