<svg xmlns="http://www.w3.org/2000/svg" width="16" height="16"><g fill="none" fill-rule="evenodd" stroke-linejoin="round"><path stroke="#c1c0c0" stroke-linecap="round" d="m1.87 8 .7-2.74a1 1 0 0 1 .96-.76h10.94a1 1 0 0 1 .97 1.24L15.12 7M6.5 13.5H2A1.5 1.5 0 0 1 .5 12V3.5a1 1 0 0 1 1-1h5a1 1 0 0 1 1 1v1"/><path stroke="#6EE6CC" d="m9.75 15.5-1.25-4"/><path stroke="#AB9DF2" stroke-linecap="round" d="M14.25 15.5h-4.5"/><path stroke="#A9DC76" stroke-linecap="round" d="m15.5 11.5-1.25 4"/><path stroke="#78DCE8" stroke-linecap="round" d="m8.5 11.5 3.5-3 3.5 3"/><path stroke="#FF6188" stroke-linecap="round" d="m8.5 11.5 3.5-3"/></g></svg>