<svg xmlns="http://www.w3.org/2000/svg" width="16" height="16"><g fill="none" fill-rule="evenodd"><path stroke="#c1c0c0" stroke-linecap="round" stroke-linejoin="round" d="M4.5 4.5H12c.83 0 1.5.67 1.5 1.5v.5m-7 7H2A1.5 1.5 0 0 1 .5 12V3.5a1 1 0 0 1 1-1h5a1 1 0 0 1 1 1v1"/><path stroke="#FC9867" stroke-linecap="square" d="M11.5 8.5v6m0-6a.5.5 0 1 0 0-1 .5.5 0 0 0 0 1Zm0 7a.5.5 0 1 0 0-1 .5.5 0 0 0 0 1Zm2.6-2.5-5.2-3m5.2 3a.5.5 0 1 0 .86.5.5.5 0 0 0-.86-.5ZM8.04 9.5a.5.5 0 1 0 .86.5.5.5 0 0 0-.86-.5Zm6.06.5-5.2 3m5.2-3a.5.5 0 1 0 .86-.5.5.5 0 0 0-.86.5Zm-6.06 3.5a.5.5 0 1 0 .86-.5.5.5 0 0 0-.86.5Z"/></g></svg>