<svg xmlns="http://www.w3.org/2000/svg" width="16" height="16"><g fill="none" fill-rule="evenodd" stroke-linecap="round" stroke-linejoin="round"><path stroke="#c1c0c0" d="m1.87 8 .7-2.74a1 1 0 0 1 .96-.76h10.94a1 1 0 0 1 .97 1.24L15.12 7M6.5 13.5H2A1.5 1.5 0 0 1 .5 12V3.5a1 1 0 0 1 1-1h5a1 1 0 0 1 1 1v1"/><path stroke="#AB9DF2" d="M11.66 8.75c.14-.28.33-.53.55-.75.13.23.21.49.22.75l.45-.1s.66 1.3-.45 3.1c.71.52 1.02 1.41.78 2.25 1.15-.38 1.53-.75 1.91-.75.1 0 .2.04.27.1.07.08.11.17.1.27 0 0 .06.25-.6.57l-1.33.66c-.6.38-1.29.6-2 .65-.77 0-1.33.05-1.33-.33a.97.97 0 0 1 .32-.65h-.33s-.56.98-1.33.98c-.76 0 0-.65 0-.65-.66 0-.43-1.26.33-1.63-.26-.42-.3-.95-.1-1.4.2-.46.6-.79 1.1-.89-.39-.37-.66-1.18-.33-1.3.3-.12.54-.36.66-.65a1.4 1.4 0 0 1 1.11-.23h0Z"/></g></svg>