<svg xmlns="http://www.w3.org/2000/svg" width="16" height="16"><g fill="none" fill-rule="evenodd" stroke-linecap="round" stroke-linejoin="round"><path stroke="#c1c0c0" d="m1.87 8 .7-2.74a1 1 0 0 1 .96-.76h10.94a1 1 0 0 1 .97 1.24L15.12 7M6.5 13.5H2A1.5 1.5 0 0 1 .5 12V3.5a1 1 0 0 1 1-1h5a1 1 0 0 1 1 1v1"/><path stroke="#A9DC76" d="M12.87 14.5h2.63L13.38 11l-1.66 2.72-.1.18-.2.26a.82.82 0 0 1-.18.16.96.96 0 0 1-.22.1c-.08.03-.17.04-.25.05-.08.02-.2.02-.25.02l-1.7.01c-.46.01-.35-.26-.2-.5L11 10l1.4 2.35"/></g></svg>