<svg xmlns="http://www.w3.org/2000/svg" width="16" height="16"><g fill="none" fill-rule="evenodd" stroke-linejoin="round"><path stroke="#FFD866" stroke-linecap="square" d="M2 9c0 1 .5.75.5 1.75-.33.5-.83.75-1.5.75l-.25.5c.5.75 1.25 1 2.25 1 .67 0 1.17-.17 1.5-.5 1.33.67 2 1.67 2 3 3.25 0 5.5-2.75 5.5-6.5 2-.67 3.17-2.17 3.5-4.5a6.87 6.87 0 0 0-5 1.5c-1.25-1.5-2.25-1.75-4-1.5-.25-1.25-1.25-2-2-2.5 0-.33-.25-.83-.75-1.5A6.88 6.88 0 0 0 2.5 4c0 1 .33 2.17 1 3.5C2.5 7.83 2 8.33 2 9Z"/><path stroke="#c1c0c0" stroke-linecap="round" d="M1 12a.5.5 0 1 0 0-1 .5.5 0 0 0 0 1Zm7-1.75c-.5 0-1 .08-1.5.25l2-1a2.9 2.9 0 0 0-.5.75Z"/><path stroke="#c1c0c0" d="M4.5 8v2"/></g></svg>