<svg xmlns="http://www.w3.org/2000/svg" width="16" height="16"><g fill="none" fill-rule="evenodd"><circle cx="7.5" cy="10.5" r="1" stroke="#c1c0c0"/><circle cx="7.5" cy="4.5" r="1" stroke="#c1c0c0"/><circle cx="10.5" cy="7.5" r="1" stroke="#c1c0c0"/><path stroke="#c1c0c0" stroke-linecap="square" d="M7.5 5.5v4m-1-6-1-1m4 4-1-1"/><path stroke="#FC9867" stroke-linecap="round" stroke-linejoin="round" d="m9.06 1.06 5.88 5.88a1.5 1.5 0 0 1 0 2.12l-5.88 5.88a1.5 1.5 0 0 1-2.12 0L1.06 9.06a1.5 1.5 0 0 1 0-2.12l5.88-5.88a1.5 1.5 0 0 1 2.12 0Z"/></g></svg>