<svg xmlns="http://www.w3.org/2000/svg" width="16" height="16"><g fill="none" fill-rule="evenodd"><path stroke="#c1c0c0" d="M7.25 9.25s2.15 1.22 2.98 1.38c.83.17 1.55.8 2.57-.26 1.1-1.15 1.2-1.27.29-1.93-.91-.66-2.59-1.94-2.59-2.69"/><path stroke="#E979FF" stroke-linejoin="round" stroke-width=".91" d="M6.84 5.25a.8.8 0 0 0 1.24.29l3.84-3.1 1.1 1.35-3.45 2.8a6.9 6.9 0 0 0-2.37 3.76l-1.05 4.42-1.7-.4L5.49 10a6.9 6.9 0 0 0-.47-4.51l-1.77-3.8L4.84.95l2 4.3Z"/><path stroke="#c1c0c0" stroke-linejoin="round" d="m12.17 4.48-1.1-1.36 1.1 1.36Zm-6.9-2.62-1.6.74 1.6-.74Z"/></g></svg>