<svg xmlns="http://www.w3.org/2000/svg" width="16" height="16"><g fill="none" fill-rule="evenodd"><path d="M0 0h8v11H0z"/><path stroke="#FF6188" stroke-linecap="round" stroke-linejoin="round" d="M.5 4.06c0 .77.24 1.52.7 2.13l2.24 3.96.04.08h0c.13.17.32.27.52.27s.36-.09.48-.23h0l.03-.03.08-.15 2.2-3.88c.46-.61.71-1.37.71-2.15A3.63 3.63 0 0 0 3.88.5C1.95.5.5 2.1.5 4.06Z"/><circle cx="4" cy="4" r="1.5" stroke="#FF6188" stroke-linecap="round" stroke-linejoin="round"/><path stroke="#FFD866" stroke-linecap="round" stroke-linejoin="round" d="M10 4.5h3.5a2 2 0 0 1 2 2v7a2 2 0 0 1-2 2h-7a2 2 0 0 1-2-2V13"/><g stroke="#FFD866" stroke-linejoin="round"><path stroke-linecap="round" d="M13.5 9c-.33-.33-.83-.5-1.5-.5-1 0-1.5.5-1.5 1s.5 1 1.5 1 1.5.5 1.5 1-.5 1-1.5 1c-.67 0-1.17-.17-1.5-.5"/><path d="M8.5 8v3.5a1 1 0 1 1-2 0V11"/></g></g></svg>