<svg xmlns="http://www.w3.org/2000/svg" width="16" height="16"><g fill="none" fill-rule="evenodd" stroke-linejoin="round"><path stroke="#727072" stroke-linecap="round" d="M11.5 13.5a1 1 0 1 0 0-2 1 1 0 0 0 0 2Zm1.75-4 1.75 3-1.75 3h-3.5L8 12.5l1.75-3h3.5Z"/><path stroke="#FFD866" stroke-linecap="round" d="M6.5 11.5h-4a2 2 0 0 1-2-2v-7c0-1.1.9-2 2-2h7a2 2 0 0 1 2 2V7h0"/><g stroke="#FFD866"><path stroke-linecap="round" d="M9.5 5c-.33-.33-.83-.5-1.5-.5-1 0-1.5.5-1.5 1s.5 1 1.5 1 1.5.5 1.5 1-.5 1-1.5 1c-.67 0-1.17-.17-1.5-.5"/><path d="M4.5 4v3.5a1 1 0 1 1-2 0V7"/></g></g></svg>