<svg xmlns="http://www.w3.org/2000/svg" width="16" height="16"><g fill="none" fill-rule="evenodd"><path stroke="#727072" stroke-linecap="round" stroke-linejoin="round" d="M12.5 11.5c1.33-1 2-2.83 2-5.5 0-2-1-5.5-5.5-5.5C5.5.5 4.25 1.75 3.5 3c-1.33.67-1.75 1.75-1.25 3.25a5.11 5.11 0 0 0 0 2.25C2.42 9.17 3 9.58 4 9.75L4.5 12M7.25.75C6.42.92 5.67 1.67 5 3a5.64 5.64 0 0 0-.5 4c-.5-1.33-1.17-1.67-2-1"/><path stroke="#c1c0c0" stroke-linecap="round" d="M11.5 9.5h-2c-.83 0-1.5-.33-2-1m4.5-2a.5.5 0 1 0 0-1 .5.5 0 0 0 0 1Zm-4 0a.5.5 0 1 0 0-1 .5.5 0 0 0 0 1Z"/><path stroke="#78DCE8" stroke-linecap="round" stroke-linejoin="round" d="M14 15.5h.5l.75-2-2.75-2m-7.5.25L1 14l.5 1.5H6"/><path stroke="#FF6188" stroke-linejoin="round" d="m10 14 2.5-1.5v3l-5-3v3z"/></g></svg>