<svg xmlns="http://www.w3.org/2000/svg" width="16" height="16"><g fill="none" fill-rule="evenodd" stroke-linecap="round" stroke-linejoin="round"><path stroke="#FC9867" d="M4.28 8.2c-.01.02.13.2.38.36.14.08.3.14.45.16M5.56 5.8c-.03.02.56.77 1.42.45"/><path stroke="#FC9867" d="M3.6 10.45a2.11 2.11 0 0 1-.05-.2C3.4 9.69 3.5 9 4.4 8.45c-.67-1.23.66-2.56 1.13-2.6.24 0-.17-2.8 2.84-2.35M8.72 5.01c-.16-.14-.97-.54-.35-1.4M10.93 8.33s.1-.33 0-.74c-.01-.11-.05-.22-.1-.32"/><path stroke="#FC9867" d="M6.42 11.5h4.96c.6.07 2.03-1.64-.42-3.21-.56.63-1.12 1.2-2.09 1.05"/><circle cx="8" cy="8" r="6.5" stroke="#FF6188"/><path stroke="#FF6188" d="m3.4 12.65 9.25-9.25"/></g></svg>