<svg xmlns="http://www.w3.org/2000/svg" width="16" height="16"><path fill="none" fill-rule="evenodd" stroke="#c1c0c0" d="M14.49 8.47a6.11 6.11 0 0 1-.86 2.95c-2.33 4.05-5.32 3.44-5.39 1.93 0-.2 0-.42.07-.62.13-.69.66-1.51.86-2.27.2-.82-.13-1.5-1.73-1.99C4.85 7.72 4 5.45 4.8 3.74c.46-1.03 1.52-2 3.32-2.2 3.99-.48 6.58 3.36 6.38 6.93Zm-8.1 3.1c.06.14.06.24.1.33.06.72-.4 1.35-1.08 1.54-.8.24-1.64-.24-1.84-1-.05-.2-.1-.4-.05-.58a1.4 1.4 0 0 1 1.1-1.3c.79-.24 1.58.24 1.78 1ZM2.43 6.99c.52-.05.93.3 1.03.9.05.05.05.11.05.17v.24c0 .6-.36 1.06-.92 1.18-.52.06-1.03-.41-1.08-1.06v-.3c.05-.6.41-1.07.92-1.13Z"/></svg>