<svg xmlns="http://www.w3.org/2000/svg" width="16" height="16"><path fill="none" fill-rule="evenodd" stroke="#FC9867" stroke-linecap="round" stroke-linejoin="round" d="M7.5 6.5c0 3-3 4.25-3 9h8c0-4.75-3-6-3-9m1.08 3.14c1.72.23 2.92.75 2.92 1.36 0 .44-.62.83-1.62 1.1m-6.76 0c-1-.27-1.62-.66-1.62-1.1 0-.6 1.2-1.13 2.92-1.36m-1.3 2.46c.89.25 2.07.4 3.38.4 1.3 0 2.5-.15 3.38-.4M8.5 6.5a3 3 0 1 0 0-6 3 3 0 0 0 0 6Zm1.98-.75c.63.18 1.02.45 1.02.75 0 .55-1.34 1-3 1s-3-.45-3-1c0-.3.4-.57 1.02-.75"/></svg>