<svg xmlns="http://www.w3.org/2000/svg" width="16" height="16"><g fill="none" fill-rule="evenodd"><path stroke="#78DCE8" stroke-linecap="round" stroke-linejoin="round" d="M5.5 3.25C6.17 2.75 7 2.5 8 2.5s1.83.25 2.5.75M10 3c.33-.33.83-.5 1.5-.5 1 0 3 1.5 3 4s-1.25 4-2 4c-.5 0-1.08-.42-1.75-1.25.67-.83.92-2.08.75-3.75M6 3c-.33-.33-.83-.5-1.5-.5-1 0-3 1.5-3 4 0 .76.12 1.44.3 2M3.75 10c-.17-.33-.42-.5-.75-.5-.5 0-.5.5-.5 1.25 0 .3.23.77.62 1.25M5 13.33c.31.1.65.17 1 .17 2 0 4-1.5 4.5-5m-4 2c-.17.67-.42 1-.75 1s-.5-.08-.5-.25"/><circle cx="6" cy="7" r="1.5" stroke="#727072"/><path stroke="#c1c0c0" stroke-linecap="round" d="M5.1 9.33 3.5 13.5m2.5-4a2.5 2.5 0 1 0 0-5 2.5 2.5 0 0 0 0 5Z"/></g></svg>