<svg xmlns="http://www.w3.org/2000/svg" width="16" height="16"><g fill="none" fill-rule="evenodd"><path stroke="#727072" d="M15 11.5c.27 0 .5.22.5.5v3a.5.5 0 0 1-.5.5h-5a.5.5 0 0 1-.5-.5v-3c0-.28.22-.5.5-.5h5Zm-4 0V10a1.5 1.5 0 0 1 3 0v1.5"/><path stroke="#FFD866" stroke-linecap="square" d="M4.5 1.5v3"/><path stroke="#c1c0c0" stroke-linecap="square" d="M7.5 7.5v3M4.5 5.5v4"/><path stroke="#FFD866" stroke-linecap="square" d="M7.5 1.5v6"/><path stroke="#FFD866" stroke-linecap="round" d="M10.5 6.5v-5h-9v3h9"/><path stroke="#c1c0c0" stroke-linecap="round" d="M9.5 7.5h-8v3h6"/></g></svg>