<svg xmlns="http://www.w3.org/2000/svg" width="16" height="16"><g fill="none" fill-rule="evenodd" stroke-linecap="round" stroke-linejoin="round"><path stroke="#A9DC76" d="m11.05 4.39-.72-.19-.06-.9-.8-.1-.17.96-.7.17-.45-.93-1.05.32.39.96-.37.47-.9-.38-.5.59 1.2 1.55m4.62-3.13s-1 1.74-1.77 2.27c-.76.53-1.42 1.14-3.9.84-2.5-.3-3.89.04-4.2.38-.3.34-.25 1.07.58 1.51.82.44 1.94.8 1.94.8"/><path stroke="#FFD866" d="m11.86 10.7.54-.52.78.42.51-.65-.71-.65.22-.7 1.01.1.29-1.08-1.01-.17-.19-.56.79-.59-.23-.74-1.92.22m.17 5.67s-.92-1.8-.96-2.73c-.03-.94-.2-1.83 1.36-3.84 1.55-2 2-3.4 1.89-3.85-.12-.44-.76-.78-1.56-.3-.8.5-1.55 1.45-1.55 1.45"/><path stroke="#78DCE8" d="m6.12 8.41.18.74-.75.49.29.77.91-.31.48.55-.58.84.77.8.64-.82.58.12.1 1 .74.16.77-1.82M5.36 8.26s1.98.08 2.8.51c.8.44 1.65.74 2.57 3.12.93 2.37 1.89 3.47 2.32 3.59.44.12 1.04-.29 1.03-1.24 0-.95-.35-2.1-.35-2.1"/></g></svg>