<svg xmlns="http://www.w3.org/2000/svg" width="16" height="16"><g fill="none" fill-rule="evenodd" stroke="#E979FF"><path stroke-linecap="round" stroke-linejoin="round" d="M3.5 4.5c.67-.5 1.17-.83 1.5-1 .5-.25 5.5-.25 6 0 .33.17.83.5 1.5 1m-9 0c-1.83.33-2.83.67-3 1-.25.5 0 3 .5 3.5.33.33.83.33 1.5 0L4 5.5l-.5-1Zm9 0c1.83.33 2.83.67 3 1 .25.5 0 3-.5 3.5-.33.33-.83.33-1.5 0L12 5.5l.5-1ZM2.5 9c-.33 1.67-.33 2.67 0 3 .33.33 1.17.67 2.5 1m8.5-4c.33 1.67.33 2.67 0 3-.33.33-1.17.67-2.5 1M9 9.5c-.75-.5-1.25-.5-2 0-.5.33-1.17 1.5-2 3.5-.5.5-.58.92-.25 1.25C5.25 14.75 7 14 8 14s2.75.75 3.25.25c.33-.33.25-.75-.25-1.25-.83-2-1.5-3.17-2-3.5Zm-2.25.25C6.92 10.58 7.33 11 8 11s1.08-.42 1.25-1.25"/><path d="M10.5 8V7m-5 1V7"/></g></svg>