<svg xmlns="http://www.w3.org/2000/svg" width="16" height="16"><g fill="none" fill-rule="evenodd"><g stroke-linecap="round" stroke-linejoin="round"><path stroke="#78DCE8" d="M12.5 10.5h-2m3-1V9c0-.25-.25-.5-.5-.5h-1.75c-.5 0-.75.25-.75.75v1.25H9.25c-.5 0-.75.25-.75.75v1.5c0 .5.25.75.75.75h1.25v-.25c0-.5.25-.75.75-.75h.25"/><path stroke="#FFD866" d="M13.5 13.5h-2m-1 1v.5c0 .25.25.5.5.5h1.75c.5 0 .75-.25.75-.75V13.5h1.25c.5 0 .75-.25.75-.75v-1.5c0-.5-.25-.75-.75-.75H13.5v.25c0 .5-.25.75-.75.75h-.25"/></g><path stroke="#c1c0c0" stroke-linecap="round" d="M13.5 6.5v1m-6 7h-3a2 2 0 0 1-2-2v-9c0-1.1.9-2 2-2h4.01"/><path stroke="#c1c0c0" stroke-linejoin="round" d="m8.5 1.5 5 5h-4a1 1 0 0 1-1-1v-4Z"/><path stroke="#c1c0c0" stroke-linecap="round" stroke-linejoin="round" d="M4.5 11.5h2m-2-3h4m-4-3h2"/></g></svg>