<svg xmlns="http://www.w3.org/2000/svg" width="16" height="16"><g fill="none" fill-rule="evenodd"><path stroke="#FFD866" stroke-linecap="round" stroke-linejoin="round" d="M10.5 10.5h-3m-3 1V13c0 .8.7 1.5 1.5 1.5h3c.8 0 1.5-.7 1.5-1.5v-2.5H13c.8 0 1.5-.7 1.5-1.5V7c0-.8-.7-1.5-1.48-1.5H11.5c0 1.5 0 2-1 2h-2"/><path stroke="#FFD866" d="M8 12.5h1"/><path stroke="#78DCE8" d="M7 3.5h1"/><path stroke="#78DCE8" stroke-linecap="round" stroke-linejoin="round" d="M8.5 5.5h-3m6-1V3c0-.8-.7-1.5-1.5-1.5H7c-.8 0-1.5.7-1.5 1.5v2.5H3c-.8 0-1.5.7-1.5 1.5v2c0 .8.7 1.5 1.48 1.5H4.5c0-1.5 0-2 1-2h2"/></g></svg>