<svg xmlns="http://www.w3.org/2000/svg" width="16" height="16"><g fill="none" fill-rule="evenodd" stroke-linejoin="round"><path stroke="#78C0E8" d="m7 6 1.5-2.5h-1V5l-1.25.25L7 6Zm3.23 2.13 1.42 2.55.5-.86-1.3-.75.4-1.21-1.02.27ZM6.77 9.87l-2.92-.05.5.86 1.3-.75.84.96.28-1.02ZM8 15A7 7 0 1 0 8 1a7 7 0 0 0 0 14Z"/><path stroke="#c1c0c0" stroke-linecap="round" d="m9.23 6.13 2.92.05-.5-.86-1.3.75-.84-.96-.28 1.02ZM9 10l-1.5 2.5h1V11l1.25-.25L9 10ZM5.77 7.87 4.35 5.32l-.5.86 1.3.75-.4 1.21 1.02-.27Z"/></g></svg>