<svg xmlns="http://www.w3.org/2000/svg" width="16" height="16"><g fill="none" fill-rule="evenodd" stroke-linecap="round" stroke-linejoin="round"><path stroke="#78C0E8" d="M11.5 7.88c1.23-.44 2-1.06 2-1.75 0-1.34-2.91-2.42-6.5-2.42S.5 4.79.5 6.13C.5 7.47 3.41 8.56 7 8.56c.7 0 1.37-.04 2-.12m1.37-.94c-.29-.82-.7-1.7-1.22-2.58C7.35 1.88 4.94-.04 3.75.63c-1.19.67-.7 3.68 1.1 6.72a13.98 13.98 0 0 0 2.48 3.15M4.85 4.92c-1.8 3.04-2.29 6.04-1.1 6.71 1.19.67 3.6-1.25 5.4-4.28 1.8-3.04 2.29-6.05 1.1-6.72-1.19-.67-3.6 1.25-5.4 4.3ZM7 6.5a.5.5 0 1 0 0-1 .5.5 0 0 0 0 1Z"/><path stroke="#727072" d="M11.5 13.5a1 1 0 1 0 0-2 1 1 0 0 0 0 2Zm1.75-4 1.75 3-1.75 3h-3.5L8 12.5l1.75-3h3.5Z"/></g></svg>