<svg xmlns="http://www.w3.org/2000/svg" width="16" height="16"><g fill="none" fill-rule="evenodd" stroke="#FC9867"><path stroke-linecap="round" stroke-linejoin="round" d="M15.5 9.5c-5 2.67-10 2.67-15 0l1-1-1-2 2-.5V4.5h2l.5-2 1.5 1 1.5-2 1.5 2 1.5-1 .5 2h2V6l2 .5-1 2 1 1Z"/><circle cx="5.5" cy="7.5" r="1"/><circle cx="10.5" cy="7.5" r="1"/><path stroke-linecap="round" stroke-linejoin="round" d="M4.5 11c-.67.37-2 1-2 2.25s1.22 1.22 2 1.25v-2M11.5 11c.67.37 2 1 2 2.25s-1.22 1.22-2 1.25v-2"/></g></svg>