<svg xmlns="http://www.w3.org/2000/svg" width="16" height="16"><path fill="none" fill-rule="evenodd" stroke="#78C0E8" stroke-linecap="round" stroke-linejoin="round" d="M8.63 2.85c.99 0 1.85.57 2.31 1.43.41-.19.86-.29 1.3-.29a3.33 3.33 0 0 1 3.24 3.42 3.33 3.33 0 0 1-3.23 3.42c-.22 0-.43-.03-.64-.07a2.35 2.35 0 0 1-2.06 1.27c-.36 0-.72-.08-1.04-.25a2.7 2.7 0 0 1-2.48 1.72 2.7 2.7 0 0 1-2.53-1.84c-.17.03-.34.05-.51.05-1.39 0-2.5-1.19-2.5-2.65 0-.98.5-1.83 1.25-2.3-.16-.38-.24-.8-.24-1.2 0-1.7 1.3-3.06 2.91-3.06.94 0 1.79.47 2.32 1.2a2.56 2.56 0 0 1 1.9-.85Z"/></svg>