<svg xmlns="http://www.w3.org/2000/svg" width="16" height="16"><g fill="none" fill-rule="evenodd"><path stroke="#c1c0c0" d="M11.5 3.81c.35.06 1.03.21 2.04.46.56.13.96.63.96 1.21v8.06c0 .57-.39 1.07-.94 1.21-1.98.5-3.83.75-5.56.75-1.73 0-3.58-.25-5.56-.75a1.25 1.25 0 0 1-.94-1.21V5.45c0-.56.38-1.06.93-1.2 1.03-.27 1.72-.44 2.07-.5"/><circle cx="8" cy="4" r="3.5" stroke="#FC9867"/><path stroke="#FC9867" d="M8 4v2"/><path stroke="#727072" stroke-linecap="round" d="m3.5 10.5 1 2m1-2 1 2m4-2-1 2m3-2-1 2"/></g></svg>