<svg xmlns="http://www.w3.org/2000/svg" width="16" height="16"><g fill="none" fill-rule="evenodd"><path stroke="#c1c0c0" stroke-linecap="square" stroke-linejoin="round" d="m2 8.5.5 2 1.5 1 3-.5 1-1.5L9 11l3 .5 1.5-1 .5-2"/><path stroke="#FF6188" stroke-linejoin="round" d="M6 2.5h4M8 2.5V6"/><path stroke="#c1c0c0" d="M5 9.5h1M10 9.5h1"/><path stroke="#c1c0c0" stroke-linecap="square" d="M1.5 8.5c1 4.67 3.17 7 6.5 7s5.5-2.33 6.5-7"/><path stroke="#FFD866" stroke-linecap="square" stroke-linejoin="round" d="M2 4.5c1.33-2.67 3.33-4 6-4s4.67 1.33 6 4l1.5 1V8c-2-.33-4.5-.5-7.5-.5S2.5 7.67.5 8V5.5l1.5-1Z"/><path stroke="#FF6188" stroke-linecap="round" stroke-linejoin="round" d="M1.5 13.5 3 14l3.5-1.5h3L13 14l1.5-.5"/></g></svg>